<?xml version="1.0" ?><svg height="60px" version="1.1" viewBox="0 0 60 60" width="60px" xmlns="http://www.w3.org/2000/svg" xmlns:sketch="http://www.bohemiancoding.com/sketch/ns" xmlns:xlink="http://www.w3.org/1999/xlink"><title/><desc/><defs/><g fill="none" fill-rule="evenodd" id="Page-1" stroke="none" stroke-width="1"><g fill="#0A0B09" id="Group" transform="translate(8.000000, 0.000000)"><path d="M23.389,41.293 C22.998,40.902 22.365,40.902 21.975,41.293 L18.975,44.293 C18.688,44.579 18.603,45.009 18.758,45.383 C18.913,45.757 19.277,46 19.682,46 L25.682,46 C26.086,46 26.451,45.757 26.605,45.383 C26.76,45.009 26.675,44.579 26.389,44.293 L23.389,41.293 L23.389,41.293 Z M22.096,44 L22.682,43.414 L23.268,44 L22.096,44 L22.096,44 Z" id="Fill-12"/><path d="M44.191,22.038 C45.263,20.547 45.646,18.64 45.143,16.69 C44.574,14.488 43.066,12.843 41.188,12.245 C41.86,10.435 41.523,8.565 40.203,7.13 C38.579,5.364 36.025,4.784 33.618,5.521 C33.123,2.237 30.336,0.263 27.59,0.023 C25.761,-0.131 23.831,0.492 22.682,2.116 C21.532,0.491 19.6,-0.131 17.773,0.023 C15.027,0.263 12.24,2.237 11.745,5.521 C9.339,4.784 6.785,5.364 5.161,7.13 C3.84,8.565 3.503,10.435 4.175,12.245 C2.297,12.843 0.789,14.488 0.221,16.69 C-0.308,18.739 0.138,20.741 1.339,22.262 C1.134,22.445 1,22.704 1,23 L1,43 C1,46.974 3.272,49.562 7,49.949 L7,54 C7,57.421 9.442,60 12.682,60 L32.682,60 C36.106,60 39,57.252 39,54 L39,49.948 C42.126,49.623 45,47.747 45,44 L45,23 C45,22.515 44.648,22.13 44.191,22.038 L44.191,22.038 Z M27.416,2.015 C29.625,2.208 31.872,3.999 31.684,6.937 C31.66,7.301 31.838,7.649 32.146,7.845 C32.454,8.04 32.845,8.053 33.165,7.875 C35.446,6.614 37.649,7.308 38.731,8.483 C39.748,9.589 39.791,11.033 38.85,12.445 C38.647,12.749 38.626,13.14 38.796,13.464 C38.965,13.788 39.298,13.993 39.664,14 C41.551,14.034 42.803,15.626 43.206,17.19 C43.602,18.725 43.304,20.762 41.373,22 L24,22 L24,5 C24,4.79 23.921,4.606 23.81,4.446 C24.32,2.49 25.951,1.89 27.416,2.015 L27.416,2.015 Z M2.157,17.19 C2.56,15.626 3.812,14.034 5.7,14 C6.065,13.993 6.398,13.788 6.567,13.464 C6.737,13.14 6.716,12.749 6.514,12.445 C5.572,11.033 5.615,9.589 6.632,8.483 C7.715,7.308 9.919,6.614 12.198,7.875 C12.516,8.052 12.907,8.04 13.217,7.845 C13.525,7.649 13.703,7.301 13.68,6.937 C13.492,3.999 15.738,2.208 17.947,2.015 C19.58,1.879 21.41,2.61 21.688,5.11 C21.715,5.355 21.832,5.568 22,5.726 L22,22 L3.99,22 C2.059,20.762 1.761,18.725 2.157,17.19 L2.157,17.19 Z M43,44 C43,46.952 40.307,48 38,48 C37.448,48 37,48.447 37,49 L37,54 C37,56.131 34.982,58 32.682,58 L32,58 L32,51 C32,50.447 31.552,50 31,50 C30.448,50 30,50.447 30,51 L30,58 L24,58 L24,51 C24,50.447 23.552,50 23,50 C22.448,50 22,50.447 22,51 L22,58 L16,58 L16,51 C16,50.447 15.552,50 15,50 C14.448,50 14,50.447 14,51 L14,58 L12.682,58 C10.548,58 9,56.317 9,54 L9,49 C9,48.447 8.552,48 8,48 C4.822,48 3,46.178 3,43 L3,24 L43,24 L43,44 L43,44 Z" id="Fill-13"/><path d="M11.682,28 C7.822,28 4.682,31.141 4.682,35 C4.682,38.859 7.822,42 11.682,42 C15.542,42 18.682,38.859 18.682,35 C18.682,31.141 15.542,28 11.682,28 L11.682,28 Z M11.682,40 C8.925,40 6.682,37.757 6.682,35 C6.682,32.243 8.925,30 11.682,30 C14.439,30 16.682,32.243 16.682,35 C16.682,37.757 14.439,40 11.682,40 L11.682,40 Z" id="Fill-14"/><path d="M33.682,28 C29.822,28 26.682,31.141 26.682,35 C26.682,38.859 29.822,42 33.682,42 C37.541,42 40.682,38.859 40.682,35 C40.682,31.141 37.541,28 33.682,28 L33.682,28 Z M33.682,40 C30.925,40 28.682,37.757 28.682,35 C28.682,32.243 30.925,30 33.682,30 C36.438,30 38.682,32.243 38.682,35 C38.682,37.757 36.438,40 33.682,40 L33.682,40 Z" id="Fill-15"/></g></g></svg>